<svg width="148" height="144" viewBox="0 0 148 144" fill="none" xmlns="http://www.w3.org/2000/svg">
<path d="M4.6 97.52C3.25067 97.52 2.14667 97.0907 1.288 96.232C0.429333 95.3733 0 94.2693 0 92.92V6.44C0 5.09067 0.429333 3.98667 1.288 3.128C2.14667 2.26933 3.25067 1.84 4.6 1.84H24.656C26.0053 1.84 27.1093 2.26933 27.968 3.128C28.8267 3.98667 29.256 5.09067 29.256 6.44V12.696C32.0773 9.016 35.8187 6.01067 40.48 3.68C45.264 1.22667 50.6 0 56.488 0C69.9813 0 79.304 5.27467 84.456 15.824C87.4 11.1627 91.5093 7.36 96.784 4.416C102.059 1.472 107.701 0 113.712 0C123.771 0 131.928 3.43467 138.184 10.304C144.563 17.0507 147.752 27.1707 147.752 40.664V92.92C147.752 94.1467 147.323 95.2507 146.464 96.232C145.605 97.0907 144.501 97.52 143.152 97.52H121.808C120.459 97.52 119.293 97.0907 118.312 96.232C117.453 95.3733 117.024 94.2693 117.024 92.92V41.952C117.024 35.8187 115.736 31.4027 113.16 28.704C110.707 26.0053 107.333 24.656 103.04 24.656C99.1147 24.656 95.864 26.0667 93.288 28.888C90.712 31.5867 89.424 35.9413 89.424 41.952V92.92C89.424 94.1467 88.9947 95.2507 88.136 96.232C87.2773 97.0907 86.1733 97.52 84.824 97.52H63.48C62.1307 97.52 61.0267 97.0907 60.168 96.232C59.3093 95.3733 58.88 94.2693 58.88 92.92V41.952C58.88 35.9413 57.5307 31.5867 54.832 28.888C52.256 26.0667 48.944 24.656 44.896 24.656C40.9707 24.656 37.6587 26.0667 34.96 28.888C32.384 31.5867 31.096 35.88 31.096 41.768V92.92C31.096 94.1467 30.6667 95.2507 29.808 96.232C28.9493 97.0907 27.8453 97.52 26.496 97.52H4.6Z" fill="#A3DD76"/>
<rect y="121" width="148" height="23" rx="4" fill="#A3DD76"/>
</svg>
