<svg width="121" height="121" viewBox="0 0 121 121" fill="none" xmlns="http://www.w3.org/2000/svg">
<path d="M108.036 0H12.9643C5.80692 0 0 5.80692 0 12.9643V108.036C0 115.193 5.80692 121 12.9643 121H108.036C115.193 121 121 115.193 121 108.036V12.9643C121 5.80692 115.193 0 108.036 0ZM74.8958 103.633C72.627 104.038 71.7897 102.634 71.7897 101.473C71.7897 100.014 71.8438 92.5596 71.8438 86.5366C71.8438 82.3232 70.4393 79.6493 68.7917 78.2449C78.785 77.1375 89.3185 75.7601 89.3185 58.5013C89.3185 53.5857 87.563 51.1279 84.7 47.9679C85.1592 46.8065 86.6987 42.0259 84.2409 35.8138C80.4866 34.6525 71.8978 40.6484 71.8978 40.6484C68.3326 39.6491 64.4703 39.1359 60.6621 39.1359C56.8538 39.1359 52.9915 39.6491 49.4263 40.6484C49.4263 40.6484 40.8375 34.6525 37.0833 35.8138C34.6254 41.9989 36.1379 46.7795 36.6241 47.9679C33.7612 51.1279 32.4107 53.5857 32.4107 58.5013C32.4107 75.679 42.485 77.1375 52.4784 78.2449C51.1819 79.4063 50.0205 81.4049 49.6154 84.2679C47.0496 85.4292 40.4864 87.4279 36.5701 80.5136C34.1123 76.2462 29.6828 75.8951 29.6828 75.8951C25.3074 75.8411 29.3857 78.65 29.3857 78.65C32.3027 80.0005 34.3554 85.1862 34.3554 85.1862C36.9752 93.2078 49.5074 90.5069 49.5074 90.5069C49.5074 94.2612 49.5614 100.365 49.5614 101.473C49.5614 102.634 48.7511 104.038 46.4554 103.633C28.6295 97.6643 16.1513 80.7027 16.1513 60.8781C16.1513 36.0839 35.1116 17.2587 59.9058 17.2587C84.7 17.2587 104.795 36.0839 104.795 60.8781C104.822 80.7027 92.7217 97.6913 74.8958 103.633ZM48.4 87.1308C47.8868 87.2388 47.4007 87.0228 47.3467 86.6717C47.2926 86.2665 47.6438 85.9154 48.1569 85.8074C48.6701 85.7534 49.1563 85.9694 49.2103 86.3205C49.2913 86.6717 48.9402 87.0228 48.4 87.1308ZM45.8342 86.8877C45.8342 87.2388 45.429 87.5359 44.8888 87.5359C44.2946 87.59 43.8895 87.2929 43.8895 86.8877C43.8895 86.5366 44.2946 86.2395 44.8348 86.2395C45.348 86.1855 45.8342 86.4826 45.8342 86.8877ZM42.1339 86.5906C42.0259 86.9417 41.4857 87.1038 41.0266 86.9417C40.5134 86.8337 40.1623 86.4286 40.2703 86.0775C40.3784 85.7263 40.9185 85.5643 41.3777 85.6723C41.9179 85.8344 42.269 86.2395 42.1339 86.5906ZM38.8118 85.1322C38.5688 85.4292 38.0556 85.3752 37.6504 84.9701C37.2453 84.619 37.1373 84.1058 37.4074 83.8627C37.6504 83.5656 38.1636 83.6196 38.5688 84.0248C38.9199 84.3759 39.0549 84.9161 38.8118 85.1322ZM36.354 82.6743C36.1109 82.8364 35.6518 82.6743 35.3547 82.2692C35.0576 81.8641 35.0576 81.4049 35.3547 81.2159C35.6518 80.9728 36.1109 81.1618 36.354 81.567C36.6511 81.9721 36.6511 82.4583 36.354 82.6743ZM34.5984 80.0545C34.3554 80.2975 33.9502 80.1625 33.6531 79.8924C33.356 79.5413 33.302 79.1362 33.5451 78.9471C33.7882 78.704 34.1933 78.8391 34.4904 79.1092C34.7875 79.4603 34.8415 79.8654 34.5984 80.0545ZM32.7888 78.0558C32.6808 78.2989 32.3297 78.3529 32.0326 78.1638C31.6815 78.0018 31.5194 77.7047 31.6275 77.4616C31.7355 77.2996 32.0326 77.2185 32.3837 77.3536C32.7348 77.5426 32.8969 77.8397 32.7888 78.0558Z" fill="white"/>
</svg>
