<svg width="121" height="121" viewBox="0 0 121 121" fill="none" xmlns="http://www.w3.org/2000/svg">
<path fill-rule="evenodd" clip-rule="evenodd" d="M0 12C0 5.37258 5.37258 0 12 0H109C115.627 0 121 5.37258 121 12V109C121 115.627 115.627 121 109 121H12C5.37258 121 0 115.627 0 109V12ZM18.7973 76.3027C17.9768 76.3027 17.3054 76.0416 16.7832 75.5195C16.2611 74.9973 16 74.3259 16 73.5054V20.9162C16 20.0957 16.2611 19.4243 16.7832 18.9022C17.3054 18.38 17.9768 18.1189 18.7973 18.1189H30.9935C31.8141 18.1189 32.4854 18.38 33.0076 18.9022C33.5297 19.4243 33.7908 20.0957 33.7908 20.9162V24.7205C35.5065 22.4827 37.7816 20.6551 40.6162 19.2378C43.5254 17.7459 46.7703 17 50.3508 17C58.5562 17 64.2254 20.2076 67.3584 26.6227C69.1487 23.7881 71.6476 21.4757 74.8551 19.6854C78.0627 17.8951 81.4941 17 85.1492 17C91.266 17 96.2265 19.0886 100.031 23.2659C103.91 27.3686 105.849 33.5227 105.849 41.7281V73.5054C105.849 74.2514 105.588 74.9227 105.066 75.5195C104.544 76.0416 103.872 76.3027 103.052 76.3027H90.0724C89.2519 76.3027 88.5432 76.0416 87.9465 75.5195C87.4243 74.9973 87.1632 74.3259 87.1632 73.5054V42.5114C87.1632 38.7816 86.38 36.0962 84.8135 34.4551C83.3216 32.8141 81.2703 31.9935 78.6595 31.9935C76.2724 31.9935 74.2957 32.8513 72.7292 34.567C71.1627 36.2081 70.3795 38.8562 70.3795 42.5114V73.5054C70.3795 74.2514 70.1184 74.9227 69.5962 75.5195C69.0741 76.0416 68.4027 76.3027 67.5822 76.3027H54.6027C53.7822 76.3027 53.1108 76.0416 52.5886 75.5195C52.0665 74.9973 51.8054 74.3259 51.8054 73.5054V42.5114C51.8054 38.8562 50.9849 36.2081 49.3438 34.567C47.7773 32.8513 45.7632 31.9935 43.3016 31.9935C40.9146 31.9935 38.9005 32.8513 37.2595 34.567C35.693 36.2081 34.9097 38.8189 34.9097 42.3995V73.5054C34.9097 74.2514 34.6487 74.9227 34.1265 75.5195C33.6043 76.0416 32.933 76.3027 32.1124 76.3027H18.7973ZM20 90.5811C17.7909 90.5811 16 92.3719 16 94.5811V100.568C16 102.777 17.7909 104.568 20 104.568H102C104.209 104.568 106 102.777 106 100.568V94.5811C106 92.3719 104.209 90.5811 102 90.5811H20Z" fill="#A3DD76"/>
</svg>
