<svg width="559" height="222" viewBox="0 0 559 222" fill="none" xmlns="http://www.w3.org/2000/svg">
<path d="M454.19 107.345V201.735M37 201.198H498.703M454.19 111.099L386.38 21L522 21L454.19 111.099Z" stroke="#1F4427" stroke-width="6"/>
<path d="M454.19 95.5463L417.033 46.0722L491.346 46.0722L454.19 95.5463Z" fill="#A3DD76"/>
<mask id="path-3-outside-1" maskUnits="userSpaceOnUse" x="45" y="73.7346" width="357" height="104" fill="black">
<rect fill="white" x="45" y="73.7346" width="357" height="104"/>
<path d="M71.3653 176.735C60.4696 176.735 52.0145 172.228 46 163.213V156.125C48.3535 161.376 51.753 165.489 56.1984 168.464C60.7311 171.44 66.1354 172.928 72.4113 172.928C76.7696 172.928 80.7792 171.965 84.4402 170.04C88.1884 168.114 91.152 165.401 93.3312 161.901C95.5103 158.4 96.5999 154.374 96.5999 149.823C96.5999 145.71 95.9026 142.166 94.5079 139.19C93.1132 136.215 90.8033 133.37 87.5782 130.657C84.3531 127.857 79.6897 124.575 73.588 120.812L69.4041 118.186C65.5688 115.823 62.4744 113.723 60.1209 111.885C57.7674 110.047 55.719 107.903 53.9757 105.453C51.7094 102.04 50.5762 98.1014 50.5762 93.6381C50.5762 87.687 52.4939 83.0487 56.3292 79.7231C60.1645 76.3975 65.0458 74.7346 70.9731 74.7346C78.9923 74.7346 85.3555 77.7102 90.0624 83.6613V90.3563C88.0576 86.6806 85.3119 83.7926 81.8252 81.6922C78.3386 79.5918 74.5033 78.5416 70.3193 78.5416C65.961 78.5416 62.3 79.8981 59.3364 82.6111C56.3728 85.3241 54.8909 88.956 54.8909 93.5069C54.8909 97.9702 56.242 101.821 58.9442 105.059C61.7335 108.21 66.3969 111.666 72.9343 115.43C80.9536 120.155 87.186 124.444 91.6314 128.294C94.7694 131.183 97.0357 134.377 98.4304 137.878C99.9122 141.378 100.653 145.273 100.653 149.561C100.653 154.987 99.3892 159.757 96.8614 163.87C94.3336 167.983 90.8469 171.177 86.4015 173.453C81.956 175.641 76.9439 176.735 71.3653 176.735Z"/>
<path d="M114.376 76.4412H118.56V128.032C120.39 124.094 123.484 120.856 127.843 118.318C132.288 115.692 136.777 114.379 141.31 114.379C149.591 114.379 155.954 116.655 160.399 121.206C164.932 125.757 167.198 132.189 167.198 140.503V174.897H163.014V140.503C163.014 133.327 161.097 127.813 157.261 123.962C153.513 120.024 148.196 118.055 141.31 118.055C137.126 118.055 133.291 119.062 129.804 121.074C126.317 123 123.572 125.713 121.567 129.213C119.562 132.627 118.56 136.39 118.56 140.503V174.897H114.376V76.4412Z"/>
<path d="M211.427 176.341C205.849 176.341 200.662 174.941 195.868 172.14C191.074 169.34 187.282 165.576 184.493 160.85C181.704 156.037 180.309 150.874 180.309 145.36C180.309 139.847 181.704 134.727 184.493 130.001C187.282 125.188 191.074 121.381 195.868 118.58C200.662 115.78 205.849 114.379 211.427 114.379C217.093 114.379 222.454 115.911 227.509 118.974C232.565 121.95 236.095 125.844 238.1 130.657V115.823H242.284V174.897H238.1V160.194C235.746 165.095 232.086 169.033 227.117 172.009C222.236 174.897 217.006 176.341 211.427 176.341ZM211.689 172.665C216.483 172.665 220.928 171.44 225.025 168.989C229.122 166.452 232.347 163.126 234.701 159.013C237.141 154.812 238.361 150.261 238.361 145.36C238.361 140.547 237.141 136.04 234.701 131.839C232.26 127.638 228.991 124.313 224.894 121.862C220.798 119.324 216.352 118.055 211.558 118.055C206.764 118.055 202.275 119.324 198.091 121.862C193.994 124.4 190.682 127.769 188.154 131.97C185.713 136.171 184.493 140.678 184.493 145.491C184.493 150.305 185.713 154.812 188.154 159.013C190.682 163.126 194.038 166.452 198.222 168.989C202.405 171.44 206.895 172.665 211.689 172.665Z"/>
<path d="M258.787 76.7038H262.971V136.302L286.244 115.823H291.605L264.671 139.453L298.404 174.897H292.782L262.971 143.391V174.897H258.787V76.7038Z"/>
<path d="M332.877 172.796C337.409 172.796 341.724 171.615 345.821 169.252C349.918 166.889 353.317 163.651 356.019 159.538V166.233C352.794 169.821 349.264 172.446 345.429 174.109C341.593 175.684 337.235 176.472 332.354 176.472C326.949 176.472 321.85 175.028 317.056 172.14C312.349 169.252 308.557 165.401 305.681 160.588C302.892 155.775 301.497 150.655 301.497 145.229C301.497 139.365 302.892 134.114 305.681 129.476C308.47 124.75 312.262 121.074 317.056 118.449C321.937 115.823 327.342 114.511 333.269 114.511C342.334 114.511 350.048 118.099 356.412 125.275L315.356 165.97C318.233 168.333 321.022 170.083 323.724 171.221C326.426 172.271 329.477 172.796 332.877 172.796ZM305.681 144.835C305.681 152.099 308.078 158.313 312.872 163.476L351.182 125.275C348.305 122.737 345.516 120.943 342.814 119.893C340.111 118.755 336.886 118.186 333.138 118.186C327.821 118.186 323.07 119.368 318.887 121.731C314.79 124.006 311.565 127.157 309.211 131.183C306.858 135.208 305.681 139.759 305.681 144.835Z"/>
<path d="M369.489 115.823H373.673V129.476C375.417 125.188 377.945 121.818 381.257 119.368C384.656 116.917 388.492 115.692 392.763 115.692C395.465 115.692 398.211 116.261 401 117.399V122.256C398.472 120.331 395.639 119.368 392.501 119.368C389.363 119.368 386.313 120.331 383.349 122.256C380.472 124.181 378.119 126.763 376.288 130.001C374.545 133.239 373.673 136.696 373.673 140.372V174.897H369.489V115.823Z"/>
</mask>
<path d="M71.3653 176.735C60.4696 176.735 52.0145 172.228 46 163.213V156.125C48.3535 161.376 51.753 165.489 56.1984 168.464C60.7311 171.44 66.1354 172.928 72.4113 172.928C76.7696 172.928 80.7792 171.965 84.4402 170.04C88.1884 168.114 91.152 165.401 93.3312 161.901C95.5103 158.4 96.5999 154.374 96.5999 149.823C96.5999 145.71 95.9026 142.166 94.5079 139.19C93.1132 136.215 90.8033 133.37 87.5782 130.657C84.3531 127.857 79.6897 124.575 73.588 120.812L69.4041 118.186C65.5688 115.823 62.4744 113.723 60.1209 111.885C57.7674 110.047 55.719 107.903 53.9757 105.453C51.7094 102.04 50.5762 98.1014 50.5762 93.6381C50.5762 87.687 52.4939 83.0487 56.3292 79.7231C60.1645 76.3975 65.0458 74.7346 70.9731 74.7346C78.9923 74.7346 85.3555 77.7102 90.0624 83.6613V90.3563C88.0576 86.6806 85.3119 83.7926 81.8252 81.6922C78.3386 79.5918 74.5033 78.5416 70.3193 78.5416C65.961 78.5416 62.3 79.8981 59.3364 82.6111C56.3728 85.3241 54.8909 88.956 54.8909 93.5069C54.8909 97.9702 56.242 101.821 58.9442 105.059C61.7335 108.21 66.3969 111.666 72.9343 115.43C80.9536 120.155 87.186 124.444 91.6314 128.294C94.7694 131.183 97.0357 134.377 98.4304 137.878C99.9122 141.378 100.653 145.273 100.653 149.561C100.653 154.987 99.3892 159.757 96.8614 163.87C94.3336 167.983 90.8469 171.177 86.4015 173.453C81.956 175.641 76.9439 176.735 71.3653 176.735Z" fill="#1F4427"/>
<path d="M114.376 76.4412H118.56V128.032C120.39 124.094 123.484 120.856 127.843 118.318C132.288 115.692 136.777 114.379 141.31 114.379C149.591 114.379 155.954 116.655 160.399 121.206C164.932 125.757 167.198 132.189 167.198 140.503V174.897H163.014V140.503C163.014 133.327 161.097 127.813 157.261 123.962C153.513 120.024 148.196 118.055 141.31 118.055C137.126 118.055 133.291 119.062 129.804 121.074C126.317 123 123.572 125.713 121.567 129.213C119.562 132.627 118.56 136.39 118.56 140.503V174.897H114.376V76.4412Z" fill="#1F4427"/>
<path d="M211.427 176.341C205.849 176.341 200.662 174.941 195.868 172.14C191.074 169.34 187.282 165.576 184.493 160.85C181.704 156.037 180.309 150.874 180.309 145.36C180.309 139.847 181.704 134.727 184.493 130.001C187.282 125.188 191.074 121.381 195.868 118.58C200.662 115.78 205.849 114.379 211.427 114.379C217.093 114.379 222.454 115.911 227.509 118.974C232.565 121.95 236.095 125.844 238.1 130.657V115.823H242.284V174.897H238.1V160.194C235.746 165.095 232.086 169.033 227.117 172.009C222.236 174.897 217.006 176.341 211.427 176.341ZM211.689 172.665C216.483 172.665 220.928 171.44 225.025 168.989C229.122 166.452 232.347 163.126 234.701 159.013C237.141 154.812 238.361 150.261 238.361 145.36C238.361 140.547 237.141 136.04 234.701 131.839C232.26 127.638 228.991 124.313 224.894 121.862C220.798 119.324 216.352 118.055 211.558 118.055C206.764 118.055 202.275 119.324 198.091 121.862C193.994 124.4 190.682 127.769 188.154 131.97C185.713 136.171 184.493 140.678 184.493 145.491C184.493 150.305 185.713 154.812 188.154 159.013C190.682 163.126 194.038 166.452 198.222 168.989C202.405 171.44 206.895 172.665 211.689 172.665Z" fill="#1F4427"/>
<path d="M258.787 76.7038H262.971V136.302L286.244 115.823H291.605L264.671 139.453L298.404 174.897H292.782L262.971 143.391V174.897H258.787V76.7038Z" fill="#1F4427"/>
<path d="M332.877 172.796C337.409 172.796 341.724 171.615 345.821 169.252C349.918 166.889 353.317 163.651 356.019 159.538V166.233C352.794 169.821 349.264 172.446 345.429 174.109C341.593 175.684 337.235 176.472 332.354 176.472C326.949 176.472 321.85 175.028 317.056 172.14C312.349 169.252 308.557 165.401 305.681 160.588C302.892 155.775 301.497 150.655 301.497 145.229C301.497 139.365 302.892 134.114 305.681 129.476C308.47 124.75 312.262 121.074 317.056 118.449C321.937 115.823 327.342 114.511 333.269 114.511C342.334 114.511 350.048 118.099 356.412 125.275L315.356 165.97C318.233 168.333 321.022 170.083 323.724 171.221C326.426 172.271 329.477 172.796 332.877 172.796ZM305.681 144.835C305.681 152.099 308.078 158.313 312.872 163.476L351.182 125.275C348.305 122.737 345.516 120.943 342.814 119.893C340.111 118.755 336.886 118.186 333.138 118.186C327.821 118.186 323.07 119.368 318.887 121.731C314.79 124.006 311.565 127.157 309.211 131.183C306.858 135.208 305.681 139.759 305.681 144.835Z" fill="#1F4427"/>
<path d="M369.489 115.823H373.673V129.476C375.417 125.188 377.945 121.818 381.257 119.368C384.656 116.917 388.492 115.692 392.763 115.692C395.465 115.692 398.211 116.261 401 117.399V122.256C398.472 120.331 395.639 119.368 392.501 119.368C389.363 119.368 386.313 120.331 383.349 122.256C380.472 124.181 378.119 126.763 376.288 130.001C374.545 133.239 373.673 136.696 373.673 140.372V174.897H369.489V115.823Z" fill="#1F4427"/>
<path d="M71.3653 176.735C60.4696 176.735 52.0145 172.228 46 163.213V156.125C48.3535 161.376 51.753 165.489 56.1984 168.464C60.7311 171.44 66.1354 172.928 72.4113 172.928C76.7696 172.928 80.7792 171.965 84.4402 170.04C88.1884 168.114 91.152 165.401 93.3312 161.901C95.5103 158.4 96.5999 154.374 96.5999 149.823C96.5999 145.71 95.9026 142.166 94.5079 139.19C93.1132 136.215 90.8033 133.37 87.5782 130.657C84.3531 127.857 79.6897 124.575 73.588 120.812L69.4041 118.186C65.5688 115.823 62.4744 113.723 60.1209 111.885C57.7674 110.047 55.719 107.903 53.9757 105.453C51.7094 102.04 50.5762 98.1014 50.5762 93.6381C50.5762 87.687 52.4939 83.0487 56.3292 79.7231C60.1645 76.3975 65.0458 74.7346 70.9731 74.7346C78.9923 74.7346 85.3555 77.7102 90.0624 83.6613V90.3563C88.0576 86.6806 85.3119 83.7926 81.8252 81.6922C78.3386 79.5918 74.5033 78.5416 70.3193 78.5416C65.961 78.5416 62.3 79.8981 59.3364 82.6111C56.3728 85.3241 54.8909 88.956 54.8909 93.5069C54.8909 97.9702 56.242 101.821 58.9442 105.059C61.7335 108.21 66.3969 111.666 72.9343 115.43C80.9536 120.155 87.186 124.444 91.6314 128.294C94.7694 131.183 97.0357 134.377 98.4304 137.878C99.9122 141.378 100.653 145.273 100.653 149.561C100.653 154.987 99.3892 159.757 96.8614 163.87C94.3336 167.983 90.8469 171.177 86.4015 173.453C81.956 175.641 76.9439 176.735 71.3653 176.735Z" stroke="#1F4427" stroke-width="2" mask="url(#path-3-outside-1)"/>
<path d="M114.376 76.4412H118.56V128.032C120.39 124.094 123.484 120.856 127.843 118.318C132.288 115.692 136.777 114.379 141.31 114.379C149.591 114.379 155.954 116.655 160.399 121.206C164.932 125.757 167.198 132.189 167.198 140.503V174.897H163.014V140.503C163.014 133.327 161.097 127.813 157.261 123.962C153.513 120.024 148.196 118.055 141.31 118.055C137.126 118.055 133.291 119.062 129.804 121.074C126.317 123 123.572 125.713 121.567 129.213C119.562 132.627 118.56 136.39 118.56 140.503V174.897H114.376V76.4412Z" stroke="#1F4427" stroke-width="2" mask="url(#path-3-outside-1)"/>
<path d="M211.427 176.341C205.849 176.341 200.662 174.941 195.868 172.14C191.074 169.34 187.282 165.576 184.493 160.85C181.704 156.037 180.309 150.874 180.309 145.36C180.309 139.847 181.704 134.727 184.493 130.001C187.282 125.188 191.074 121.381 195.868 118.58C200.662 115.78 205.849 114.379 211.427 114.379C217.093 114.379 222.454 115.911 227.509 118.974C232.565 121.95 236.095 125.844 238.1 130.657V115.823H242.284V174.897H238.1V160.194C235.746 165.095 232.086 169.033 227.117 172.009C222.236 174.897 217.006 176.341 211.427 176.341ZM211.689 172.665C216.483 172.665 220.928 171.44 225.025 168.989C229.122 166.452 232.347 163.126 234.701 159.013C237.141 154.812 238.361 150.261 238.361 145.36C238.361 140.547 237.141 136.04 234.701 131.839C232.26 127.638 228.991 124.313 224.894 121.862C220.798 119.324 216.352 118.055 211.558 118.055C206.764 118.055 202.275 119.324 198.091 121.862C193.994 124.4 190.682 127.769 188.154 131.97C185.713 136.171 184.493 140.678 184.493 145.491C184.493 150.305 185.713 154.812 188.154 159.013C190.682 163.126 194.038 166.452 198.222 168.989C202.405 171.44 206.895 172.665 211.689 172.665Z" stroke="#1F4427" stroke-width="2" mask="url(#path-3-outside-1)"/>
<path d="M258.787 76.7038H262.971V136.302L286.244 115.823H291.605L264.671 139.453L298.404 174.897H292.782L262.971 143.391V174.897H258.787V76.7038Z" stroke="#1F4427" stroke-width="2" mask="url(#path-3-outside-1)"/>
<path d="M332.877 172.796C337.409 172.796 341.724 171.615 345.821 169.252C349.918 166.889 353.317 163.651 356.019 159.538V166.233C352.794 169.821 349.264 172.446 345.429 174.109C341.593 175.684 337.235 176.472 332.354 176.472C326.949 176.472 321.85 175.028 317.056 172.14C312.349 169.252 308.557 165.401 305.681 160.588C302.892 155.775 301.497 150.655 301.497 145.229C301.497 139.365 302.892 134.114 305.681 129.476C308.47 124.75 312.262 121.074 317.056 118.449C321.937 115.823 327.342 114.511 333.269 114.511C342.334 114.511 350.048 118.099 356.412 125.275L315.356 165.97C318.233 168.333 321.022 170.083 323.724 171.221C326.426 172.271 329.477 172.796 332.877 172.796ZM305.681 144.835C305.681 152.099 308.078 158.313 312.872 163.476L351.182 125.275C348.305 122.737 345.516 120.943 342.814 119.893C340.111 118.755 336.886 118.186 333.138 118.186C327.821 118.186 323.07 119.368 318.887 121.731C314.79 124.006 311.565 127.157 309.211 131.183C306.858 135.208 305.681 139.759 305.681 144.835Z" stroke="#1F4427" stroke-width="2" mask="url(#path-3-outside-1)"/>
<path d="M369.489 115.823H373.673V129.476C375.417 125.188 377.945 121.818 381.257 119.368C384.656 116.917 388.492 115.692 392.763 115.692C395.465 115.692 398.211 116.261 401 117.399V122.256C398.472 120.331 395.639 119.368 392.501 119.368C389.363 119.368 386.313 120.331 383.349 122.256C380.472 124.181 378.119 126.763 376.288 130.001C374.545 133.239 373.673 136.696 373.673 140.372V174.897H369.489V115.823Z" stroke="#1F4427" stroke-width="2" mask="url(#path-3-outside-1)"/>
</svg>
