<svg width="559" height="222" viewBox="0 0 559 222" fill="none" xmlns="http://www.w3.org/2000/svg">
<path d="M417.19 107.345V201.735M0 201.198H461.703M417.19 111.099L349.38 21L485 21L417.19 111.099Z" stroke="#1F4427" stroke-width="6"/>
<path d="M417.19 95.5463L380.033 46.0722L454.346 46.0722L417.19 95.5463Z" fill="#A3DD76"/>
<mask id="path-3-outside-1" maskUnits="userSpaceOnUse" x="8" y="73.7346" width="357" height="104" fill="black">
<rect fill="white" x="8" y="73.7346" width="357" height="104"/>
<path d="M34.3653 176.735C23.4696 176.735 15.0145 172.228 9 163.213V156.125C11.3535 161.376 14.753 165.489 19.1984 168.464C23.7311 171.44 29.1354 172.928 35.4113 172.928C39.7696 172.928 43.7792 171.965 47.4402 170.04C51.1884 168.114 54.152 165.401 56.3312 161.901C58.5103 158.4 59.5999 154.374 59.5999 149.823C59.5999 145.71 58.9026 142.166 57.5079 139.19C56.1132 136.215 53.8033 133.37 50.5782 130.657C47.3531 127.857 42.6897 124.575 36.588 120.812L32.4041 118.186C28.5688 115.823 25.4744 113.723 23.1209 111.885C20.7674 110.047 18.719 107.903 16.9757 105.453C14.7094 102.04 13.5762 98.1014 13.5762 93.6381C13.5762 87.687 15.4939 83.0487 19.3292 79.7231C23.1645 76.3975 28.0458 74.7346 33.9731 74.7346C41.9923 74.7346 48.3555 77.7102 53.0624 83.6613V90.3563C51.0576 86.6806 48.3119 83.7926 44.8252 81.6922C41.3386 79.5918 37.5033 78.5416 33.3193 78.5416C28.961 78.5416 25.3 79.8981 22.3364 82.6111C19.3728 85.3241 17.8909 88.956 17.8909 93.5069C17.8909 97.9702 19.242 101.821 21.9442 105.059C24.7335 108.21 29.3969 111.666 35.9343 115.43C43.9536 120.155 50.186 124.444 54.6314 128.294C57.7694 131.183 60.0357 134.377 61.4304 137.878C62.9122 141.378 63.6531 145.273 63.6531 149.561C63.6531 154.987 62.3892 159.757 59.8614 163.87C57.3336 167.983 53.8469 171.177 49.4015 173.453C44.956 175.641 39.9439 176.735 34.3653 176.735Z"/>
<path d="M77.3756 76.4412H81.5596V128.032C83.3901 124.094 86.4845 120.856 90.8428 118.318C95.2882 115.692 99.7773 114.379 104.31 114.379C112.591 114.379 118.954 116.655 123.399 121.206C127.932 125.757 130.198 132.189 130.198 140.503V174.897H126.014V140.503C126.014 133.327 124.097 127.813 120.261 123.962C116.513 120.024 111.196 118.055 104.31 118.055C100.126 118.055 96.2906 119.062 92.804 121.074C89.3174 123 86.5716 125.713 84.5668 129.213C82.562 132.627 81.5596 136.39 81.5596 140.503V174.897H77.3756V76.4412Z"/>
<path d="M174.427 176.341C168.849 176.341 163.662 174.941 158.868 172.14C154.074 169.34 150.282 165.576 147.493 160.85C144.704 156.037 143.309 150.874 143.309 145.36C143.309 139.847 144.704 134.727 147.493 130.001C150.282 125.188 154.074 121.381 158.868 118.58C163.662 115.78 168.849 114.379 174.427 114.379C180.093 114.379 185.454 115.911 190.509 118.974C195.565 121.95 199.095 125.844 201.1 130.657V115.823H205.284V174.897H201.1V160.194C198.746 165.095 195.086 169.033 190.117 172.009C185.236 174.897 180.006 176.341 174.427 176.341ZM174.689 172.665C179.483 172.665 183.928 171.44 188.025 168.989C192.122 166.452 195.347 163.126 197.701 159.013C200.141 154.812 201.361 150.261 201.361 145.36C201.361 140.547 200.141 136.04 197.701 131.839C195.26 127.638 191.991 124.313 187.894 121.862C183.798 119.324 179.352 118.055 174.558 118.055C169.764 118.055 165.275 119.324 161.091 121.862C156.994 124.4 153.682 127.769 151.154 131.97C148.713 136.171 147.493 140.678 147.493 145.491C147.493 150.305 148.713 154.812 151.154 159.013C153.682 163.126 157.038 166.452 161.222 168.989C165.405 171.44 169.895 172.665 174.689 172.665Z"/>
<path d="M221.787 76.7038H225.971V136.302L249.244 115.823H254.605L227.671 139.453L261.404 174.897H255.782L225.971 143.391V174.897H221.787V76.7038Z"/>
<path d="M295.877 172.796C300.409 172.796 304.724 171.615 308.821 169.252C312.918 166.889 316.317 163.651 319.019 159.538V166.233C315.794 169.821 312.264 172.446 308.429 174.109C304.593 175.684 300.235 176.472 295.354 176.472C289.949 176.472 284.85 175.028 280.056 172.14C275.349 169.252 271.557 165.401 268.681 160.588C265.892 155.775 264.497 150.655 264.497 145.229C264.497 139.365 265.892 134.114 268.681 129.476C271.47 124.75 275.262 121.074 280.056 118.449C284.937 115.823 290.342 114.511 296.269 114.511C305.334 114.511 313.048 118.099 319.412 125.275L278.356 165.97C281.233 168.333 284.022 170.083 286.724 171.221C289.426 172.271 292.477 172.796 295.877 172.796ZM268.681 144.835C268.681 152.099 271.078 158.313 275.872 163.476L314.182 125.275C311.305 122.737 308.516 120.943 305.814 119.893C303.111 118.755 299.886 118.186 296.138 118.186C290.821 118.186 286.07 119.368 281.887 121.731C277.79 124.006 274.565 127.157 272.211 131.183C269.858 135.208 268.681 139.759 268.681 144.835Z"/>
<path d="M332.489 115.823H336.673V129.476C338.417 125.188 340.945 121.818 344.257 119.368C347.656 116.917 351.492 115.692 355.763 115.692C358.465 115.692 361.211 116.261 364 117.399V122.256C361.472 120.331 358.639 119.368 355.501 119.368C352.363 119.368 349.313 120.331 346.349 122.256C343.472 124.181 341.119 126.763 339.288 130.001C337.545 133.239 336.673 136.696 336.673 140.372V174.897H332.489V115.823Z"/>
</mask>
<path d="M34.3653 176.735C23.4696 176.735 15.0145 172.228 9 163.213V156.125C11.3535 161.376 14.753 165.489 19.1984 168.464C23.7311 171.44 29.1354 172.928 35.4113 172.928C39.7696 172.928 43.7792 171.965 47.4402 170.04C51.1884 168.114 54.152 165.401 56.3312 161.901C58.5103 158.4 59.5999 154.374 59.5999 149.823C59.5999 145.71 58.9026 142.166 57.5079 139.19C56.1132 136.215 53.8033 133.37 50.5782 130.657C47.3531 127.857 42.6897 124.575 36.588 120.812L32.4041 118.186C28.5688 115.823 25.4744 113.723 23.1209 111.885C20.7674 110.047 18.719 107.903 16.9757 105.453C14.7094 102.04 13.5762 98.1014 13.5762 93.6381C13.5762 87.687 15.4939 83.0487 19.3292 79.7231C23.1645 76.3975 28.0458 74.7346 33.9731 74.7346C41.9923 74.7346 48.3555 77.7102 53.0624 83.6613V90.3563C51.0576 86.6806 48.3119 83.7926 44.8252 81.6922C41.3386 79.5918 37.5033 78.5416 33.3193 78.5416C28.961 78.5416 25.3 79.8981 22.3364 82.6111C19.3728 85.3241 17.8909 88.956 17.8909 93.5069C17.8909 97.9702 19.242 101.821 21.9442 105.059C24.7335 108.21 29.3969 111.666 35.9343 115.43C43.9536 120.155 50.186 124.444 54.6314 128.294C57.7694 131.183 60.0357 134.377 61.4304 137.878C62.9122 141.378 63.6531 145.273 63.6531 149.561C63.6531 154.987 62.3892 159.757 59.8614 163.87C57.3336 167.983 53.8469 171.177 49.4015 173.453C44.956 175.641 39.9439 176.735 34.3653 176.735Z" fill="#1F4427"/>
<path d="M77.3756 76.4412H81.5596V128.032C83.3901 124.094 86.4845 120.856 90.8428 118.318C95.2882 115.692 99.7773 114.379 104.31 114.379C112.591 114.379 118.954 116.655 123.399 121.206C127.932 125.757 130.198 132.189 130.198 140.503V174.897H126.014V140.503C126.014 133.327 124.097 127.813 120.261 123.962C116.513 120.024 111.196 118.055 104.31 118.055C100.126 118.055 96.2906 119.062 92.804 121.074C89.3174 123 86.5716 125.713 84.5668 129.213C82.562 132.627 81.5596 136.39 81.5596 140.503V174.897H77.3756V76.4412Z" fill="#1F4427"/>
<path d="M174.427 176.341C168.849 176.341 163.662 174.941 158.868 172.14C154.074 169.34 150.282 165.576 147.493 160.85C144.704 156.037 143.309 150.874 143.309 145.36C143.309 139.847 144.704 134.727 147.493 130.001C150.282 125.188 154.074 121.381 158.868 118.58C163.662 115.78 168.849 114.379 174.427 114.379C180.093 114.379 185.454 115.911 190.509 118.974C195.565 121.95 199.095 125.844 201.1 130.657V115.823H205.284V174.897H201.1V160.194C198.746 165.095 195.086 169.033 190.117 172.009C185.236 174.897 180.006 176.341 174.427 176.341ZM174.689 172.665C179.483 172.665 183.928 171.44 188.025 168.989C192.122 166.452 195.347 163.126 197.701 159.013C200.141 154.812 201.361 150.261 201.361 145.36C201.361 140.547 200.141 136.04 197.701 131.839C195.26 127.638 191.991 124.313 187.894 121.862C183.798 119.324 179.352 118.055 174.558 118.055C169.764 118.055 165.275 119.324 161.091 121.862C156.994 124.4 153.682 127.769 151.154 131.97C148.713 136.171 147.493 140.678 147.493 145.491C147.493 150.305 148.713 154.812 151.154 159.013C153.682 163.126 157.038 166.452 161.222 168.989C165.405 171.44 169.895 172.665 174.689 172.665Z" fill="#1F4427"/>
<path d="M221.787 76.7038H225.971V136.302L249.244 115.823H254.605L227.671 139.453L261.404 174.897H255.782L225.971 143.391V174.897H221.787V76.7038Z" fill="#1F4427"/>
<path d="M295.877 172.796C300.409 172.796 304.724 171.615 308.821 169.252C312.918 166.889 316.317 163.651 319.019 159.538V166.233C315.794 169.821 312.264 172.446 308.429 174.109C304.593 175.684 300.235 176.472 295.354 176.472C289.949 176.472 284.85 175.028 280.056 172.14C275.349 169.252 271.557 165.401 268.681 160.588C265.892 155.775 264.497 150.655 264.497 145.229C264.497 139.365 265.892 134.114 268.681 129.476C271.47 124.75 275.262 121.074 280.056 118.449C284.937 115.823 290.342 114.511 296.269 114.511C305.334 114.511 313.048 118.099 319.412 125.275L278.356 165.97C281.233 168.333 284.022 170.083 286.724 171.221C289.426 172.271 292.477 172.796 295.877 172.796ZM268.681 144.835C268.681 152.099 271.078 158.313 275.872 163.476L314.182 125.275C311.305 122.737 308.516 120.943 305.814 119.893C303.111 118.755 299.886 118.186 296.138 118.186C290.821 118.186 286.07 119.368 281.887 121.731C277.79 124.006 274.565 127.157 272.211 131.183C269.858 135.208 268.681 139.759 268.681 144.835Z" fill="#1F4427"/>
<path d="M332.489 115.823H336.673V129.476C338.417 125.188 340.945 121.818 344.257 119.368C347.656 116.917 351.492 115.692 355.763 115.692C358.465 115.692 361.211 116.261 364 117.399V122.256C361.472 120.331 358.639 119.368 355.501 119.368C352.363 119.368 349.313 120.331 346.349 122.256C343.472 124.181 341.119 126.763 339.288 130.001C337.545 133.239 336.673 136.696 336.673 140.372V174.897H332.489V115.823Z" fill="#1F4427"/>
<path d="M34.3653 176.735C23.4696 176.735 15.0145 172.228 9 163.213V156.125C11.3535 161.376 14.753 165.489 19.1984 168.464C23.7311 171.44 29.1354 172.928 35.4113 172.928C39.7696 172.928 43.7792 171.965 47.4402 170.04C51.1884 168.114 54.152 165.401 56.3312 161.901C58.5103 158.4 59.5999 154.374 59.5999 149.823C59.5999 145.71 58.9026 142.166 57.5079 139.19C56.1132 136.215 53.8033 133.37 50.5782 130.657C47.3531 127.857 42.6897 124.575 36.588 120.812L32.4041 118.186C28.5688 115.823 25.4744 113.723 23.1209 111.885C20.7674 110.047 18.719 107.903 16.9757 105.453C14.7094 102.04 13.5762 98.1014 13.5762 93.6381C13.5762 87.687 15.4939 83.0487 19.3292 79.7231C23.1645 76.3975 28.0458 74.7346 33.9731 74.7346C41.9923 74.7346 48.3555 77.7102 53.0624 83.6613V90.3563C51.0576 86.6806 48.3119 83.7926 44.8252 81.6922C41.3386 79.5918 37.5033 78.5416 33.3193 78.5416C28.961 78.5416 25.3 79.8981 22.3364 82.6111C19.3728 85.3241 17.8909 88.956 17.8909 93.5069C17.8909 97.9702 19.242 101.821 21.9442 105.059C24.7335 108.21 29.3969 111.666 35.9343 115.43C43.9536 120.155 50.186 124.444 54.6314 128.294C57.7694 131.183 60.0357 134.377 61.4304 137.878C62.9122 141.378 63.6531 145.273 63.6531 149.561C63.6531 154.987 62.3892 159.757 59.8614 163.87C57.3336 167.983 53.8469 171.177 49.4015 173.453C44.956 175.641 39.9439 176.735 34.3653 176.735Z" stroke="#1F4427" stroke-width="2" mask="url(#path-3-outside-1)"/>
<path d="M77.3756 76.4412H81.5596V128.032C83.3901 124.094 86.4845 120.856 90.8428 118.318C95.2882 115.692 99.7773 114.379 104.31 114.379C112.591 114.379 118.954 116.655 123.399 121.206C127.932 125.757 130.198 132.189 130.198 140.503V174.897H126.014V140.503C126.014 133.327 124.097 127.813 120.261 123.962C116.513 120.024 111.196 118.055 104.31 118.055C100.126 118.055 96.2906 119.062 92.804 121.074C89.3174 123 86.5716 125.713 84.5668 129.213C82.562 132.627 81.5596 136.39 81.5596 140.503V174.897H77.3756V76.4412Z" stroke="#1F4427" stroke-width="2" mask="url(#path-3-outside-1)"/>
<path d="M174.427 176.341C168.849 176.341 163.662 174.941 158.868 172.14C154.074 169.34 150.282 165.576 147.493 160.85C144.704 156.037 143.309 150.874 143.309 145.36C143.309 139.847 144.704 134.727 147.493 130.001C150.282 125.188 154.074 121.381 158.868 118.58C163.662 115.78 168.849 114.379 174.427 114.379C180.093 114.379 185.454 115.911 190.509 118.974C195.565 121.95 199.095 125.844 201.1 130.657V115.823H205.284V174.897H201.1V160.194C198.746 165.095 195.086 169.033 190.117 172.009C185.236 174.897 180.006 176.341 174.427 176.341ZM174.689 172.665C179.483 172.665 183.928 171.44 188.025 168.989C192.122 166.452 195.347 163.126 197.701 159.013C200.141 154.812 201.361 150.261 201.361 145.36C201.361 140.547 200.141 136.04 197.701 131.839C195.26 127.638 191.991 124.313 187.894 121.862C183.798 119.324 179.352 118.055 174.558 118.055C169.764 118.055 165.275 119.324 161.091 121.862C156.994 124.4 153.682 127.769 151.154 131.97C148.713 136.171 147.493 140.678 147.493 145.491C147.493 150.305 148.713 154.812 151.154 159.013C153.682 163.126 157.038 166.452 161.222 168.989C165.405 171.44 169.895 172.665 174.689 172.665Z" stroke="#1F4427" stroke-width="2" mask="url(#path-3-outside-1)"/>
<path d="M221.787 76.7038H225.971V136.302L249.244 115.823H254.605L227.671 139.453L261.404 174.897H255.782L225.971 143.391V174.897H221.787V76.7038Z" stroke="#1F4427" stroke-width="2" mask="url(#path-3-outside-1)"/>
<path d="M295.877 172.796C300.409 172.796 304.724 171.615 308.821 169.252C312.918 166.889 316.317 163.651 319.019 159.538V166.233C315.794 169.821 312.264 172.446 308.429 174.109C304.593 175.684 300.235 176.472 295.354 176.472C289.949 176.472 284.85 175.028 280.056 172.14C275.349 169.252 271.557 165.401 268.681 160.588C265.892 155.775 264.497 150.655 264.497 145.229C264.497 139.365 265.892 134.114 268.681 129.476C271.47 124.75 275.262 121.074 280.056 118.449C284.937 115.823 290.342 114.511 296.269 114.511C305.334 114.511 313.048 118.099 319.412 125.275L278.356 165.97C281.233 168.333 284.022 170.083 286.724 171.221C289.426 172.271 292.477 172.796 295.877 172.796ZM268.681 144.835C268.681 152.099 271.078 158.313 275.872 163.476L314.182 125.275C311.305 122.737 308.516 120.943 305.814 119.893C303.111 118.755 299.886 118.186 296.138 118.186C290.821 118.186 286.07 119.368 281.887 121.731C277.79 124.006 274.565 127.157 272.211 131.183C269.858 135.208 268.681 139.759 268.681 144.835Z" stroke="#1F4427" stroke-width="2" mask="url(#path-3-outside-1)"/>
<path d="M332.489 115.823H336.673V129.476C338.417 125.188 340.945 121.818 344.257 119.368C347.656 116.917 351.492 115.692 355.763 115.692C358.465 115.692 361.211 116.261 364 117.399V122.256C361.472 120.331 358.639 119.368 355.501 119.368C352.363 119.368 349.313 120.331 346.349 122.256C343.472 124.181 341.119 126.763 339.288 130.001C337.545 133.239 336.673 136.696 336.673 140.372V174.897H332.489V115.823Z" stroke="#1F4427" stroke-width="2" mask="url(#path-3-outside-1)"/>
</svg>
